<?xml version="1.0" standalone="no"?>
<!DOCTYPE svg PUBLIC "-//W3C//DTD SVG 20010904//EN"
 "http://www.w3.org/TR/2001/REC-SVG-20010904/DTD/svg10.dtd">
<svg version="1.0" xmlns="http://www.w3.org/2000/svg"
 width="918.000000pt" height="918.000000pt" viewBox="0 0 918.000000 918.000000"
 preserveAspectRatio="xMidYMid meet">
<metadata>
Created by potrace 1.14, written by Peter Selinger 2001-2017
</metadata>
<g transform="translate(0.000000,918.000000) scale(0.100000,-0.100000)"
fill="#000000" stroke="none">
<path d="M0 4590 l0 -4590 4590 0 4590 0 0 4590 0 4590 -4590 0 -4590 0 0
-4590z m6685 1980 c20 -39 110 -227 202 -418 91 -191 224 -468 295 -617 72
-148 176 -367 233 -485 57 -118 134 -280 173 -360 38 -80 148 -309 244 -510
97 -201 203 -423 237 -493 l62 -128 -123 -202 c-67 -111 -287 -474 -490 -807
-202 -333 -374 -614 -382 -625 -10 -14 -17 -17 -25 -9 -10 9 -369 839 -869
2006 l-157 367 -20 -23 c-11 -13 -159 -111 -330 -218 -170 -107 -482 -304
-693 -437 -263 -166 -387 -239 -395 -233 -12 10 -787 439 -1192 659 -115 63
-220 121 -232 129 -39 25 -29 42 -467 -821 -115 -225 -234 -459 -266 -520 -31
-60 -124 -240 -205 -400 -267 -523 -327 -640 -337 -652 -14 -18 -28 -16 -35 5
-20 60 -798 1610 -814 1622 -19 15 -18 16 11 75 17 33 55 119 84 190 30 72
145 346 256 610 246 583 405 961 435 1035 12 30 78 186 145 345 67 160 133
315 145 345 13 30 55 132 95 225 99 234 120 285 131 323 14 45 39 42 134 -17
44 -26 170 -101 280 -166 110 -65 220 -130 245 -145 25 -15 158 -94 295 -175
138 -81 342 -203 455 -270 113 -67 295 -175 405 -240 110 -65 244 -145 299
-177 54 -33 105 -57 112 -54 27 11 1931 1286 1955 1310 44 43 64 34 104 -44z"/>
<path d="M6634 6503 c25 -159 223 -1367 334 -2043 l77 -464 235 -88 c129 -48
350 -130 490 -182 168 -62 256 -90 258 -82 1 6 -41 102 -94 211 -116 241 -193
400 -329 685 -57 118 -135 283 -175 365 -40 83 -124 258 -187 390 -64 132
-145 301 -180 375 -36 74 -87 180 -113 235 -26 55 -88 183 -137 285 -49 102
-107 222 -128 268 -42 88 -60 104 -51 45z"/>
<path d="M2490 6484 c0 -15 32 -63 141 -211 227 -309 493 -672 688 -938 112
-154 228 -311 256 -350 28 -38 82 -112 120 -163 40 -56 73 -91 80 -88 7 2 189
123 404 267 l391 261 -77 48 c-43 26 -190 114 -328 195 -289 172 -488 289
-775 460 -113 67 -284 168 -380 225 -96 56 -245 145 -331 196 -166 99 -189
111 -189 98z"/>
<path d="M6155 6261 c-187 -125 -598 -400 -913 -610 -316 -211 -572 -384 -570
-386 11 -10 784 -467 793 -469 4 0 55 78 114 174 305 495 892 1451 911 1483
12 20 18 37 13 36 -4 0 -161 -103 -348 -228z"/>
<path d="M6447 6288 c-52 -84 -193 -313 -312 -508 -120 -195 -288 -470 -375
-610 -135 -219 -243 -398 -257 -422 -5 -10 516 -380 529 -376 6 2 42 128 79
279 37 150 149 600 247 999 197 795 196 790 188 790 -2 0 -47 -69 -99 -152z"/>
<path d="M2446 6338 c-3 -46 -10 -189 -16 -318 -6 -129 -17 -388 -25 -575 -9
-187 -24 -545 -35 -795 -11 -250 -23 -517 -26 -592 -4 -76 -4 -138 1 -138 7 0
644 238 710 266 19 8 35 19 35 26 0 6 -27 104 -59 217 -84 294 -243 843 -308
1066 -30 105 -88 305 -128 445 -41 140 -88 305 -105 365 -18 61 -33 111 -35
113 -1 2 -5 -34 -9 -80z"/>
<path d="M6581 6344 c-10 -36 -113 -454 -382 -1542 -60 -244 -109 -447 -109
-452 0 -4 12 -10 28 -13 15 -2 88 -27 162 -55 561 -211 696 -259 702 -253 3 3
-11 114 -33 246 -38 234 -87 529 -188 1148 -27 166 -73 446 -102 622 -28 176
-55 324 -59 329 -5 5 -13 -9 -19 -30z"/>
<path d="M2318 6207 c-37 -89 -104 -247 -148 -352 -45 -104 -88 -206 -95 -225
-7 -19 -29 -71 -48 -115 -41 -97 -210 -498 -242 -575 -12 -30 -66 -158 -120
-285 -54 -126 -108 -255 -120 -285 -17 -42 -218 -518 -362 -859 -14 -33 -14
-33 9 -28 13 2 142 50 288 105 146 56 384 146 529 201 145 55 267 105 271 111
8 12 10 65 40 755 11 253 24 557 30 675 5 118 16 382 25 585 8 204 18 389 21
413 3 23 2 42 -3 42 -4 0 -38 -73 -75 -163z"/>
<path d="M2550 6285 c0 -10 14 -60 135 -475 31 -107 90 -310 130 -450 40 -140
121 -421 180 -625 119 -414 147 -508 151 -513 12 -16 560 468 558 492 -1 7
-39 64 -86 127 -46 63 -119 161 -161 219 -42 58 -179 245 -304 415 -126 171
-304 416 -398 544 -195 267 -204 280 -205 266z"/>
<path d="M4214 4964 c-219 -147 -403 -270 -408 -274 -7 -7 59 -104 274 -395
36 -49 182 -249 324 -442 142 -194 261 -353 265 -353 8 0 65 92 480 768 232
378 271 448 266 471 -5 23 -36 46 -198 142 -106 62 -281 167 -390 231 -109 65
-202 118 -206 118 -4 0 -187 -120 -407 -266z"/>
<path d="M5097 4089 c-203 -330 -367 -603 -364 -606 6 -5 51 23 397 242 102
65 248 157 325 206 418 264 559 355 562 366 2 6 -58 55 -134 109 -76 54 -196
140 -268 191 -71 51 -134 93 -140 93 -5 0 -176 -270 -378 -601z"/>
<path d="M3655 4587 c-44 -40 -152 -137 -240 -216 -88 -79 -160 -149 -160
-154 0 -10 1340 -756 1358 -757 14 0 6 16 -46 86 -28 39 -185 252 -347 473
-162 221 -333 455 -380 519 -47 63 -89 117 -95 118 -5 2 -46 -29 -90 -69z"/>
<path d="M6150 4265 c0 -6 37 -94 76 -180 7 -16 200 -466 429 -999 228 -532
422 -980 431 -995 18 -31 17 6 -16 609 -11 206 -31 572 -44 814 -14 241 -28
442 -33 446 -7 7 -787 297 -825 308 -10 2 -18 1 -18 -3z"/>
<path d="M2735 4011 c-187 -71 -352 -133 -367 -139 -30 -12 -24 6 -82 -302
-19 -102 -40 -207 -45 -235 -6 -27 -24 -122 -40 -210 -113 -594 -147 -773
-182 -954 -22 -112 -38 -209 -36 -214 1 -5 40 64 86 154 46 90 131 256 189
369 57 113 153 300 212 415 59 116 187 368 285 560 98 193 215 423 261 512 46
89 84 165 84 168 0 12 -42 -2 -365 -124z"/>
<path d="M7056 3932 c-2 -4 7 -203 20 -442 13 -239 35 -653 49 -920 15 -267
30 -489 34 -493 4 -4 50 61 101 145 51 84 130 214 175 288 499 817 635 1044
628 1051 -8 8 -88 39 -423 162 -240 89 -519 193 -552 206 -15 6 -29 7 -32 3z"/>
<path d="M2085 3765 c-104 -39 -354 -134 -555 -209 -201 -76 -366 -139 -368
-141 -2 -2 727 -1473 746 -1504 8 -15 12 4 116 549 25 129 59 309 76 400 17
91 40 210 50 265 82 421 131 688 128 699 -2 9 -57 -7 -193 -59z"/>
</g>
</svg>
